<svg width="177" height="216" viewBox="0 0 177 216" fill="none" xmlns="http://www.w3.org/2000/svg">
<g opacity="0.2">
<path d="M8.92969 108H168.93V128C168.93 149.217 160.501 169.566 145.498 184.569C130.495 199.571 110.147 208 88.9297 208C67.7124 208 47.3641 199.571 32.3611 184.569C17.3582 169.566 8.92969 149.217 8.92969 128V108Z" fill="black"/>
</g>
<path d="M152.287 26.9932L166.385 13.852C167.932 12.404 168.841 10.4014 168.913 8.28376C168.985 6.16608 168.214 4.10629 166.769 2.55635C165.325 1.00641 163.324 0.0929452 161.206 0.0163889C159.089 -0.0601675 157.028 0.706443 155.475 2.148L140.119 16.4624C125.197 5.75744 107.294 -2.86005e-06 88.9297 -2.86005e-06C70.5649 -2.86005e-06 52.6623 5.75744 37.7402 16.4624L22.3848 2.148C20.8327 0.701222 18.7695 -0.0697447 16.649 0.00470257C14.5285 0.0791498 12.5244 0.992912 11.0776 2.54497C9.63086 4.09703 8.85989 6.16025 8.93434 8.28075C9.00879 10.4012 9.92255 12.4053 11.4746 13.8521L25.5723 26.9927C9.75161 43.3595 0.914803 65.2367 0.929691 88V128C0.929691 151.339 10.2011 173.722 26.7043 190.225C43.2075 206.729 65.5906 216 88.9297 216C112.269 216 134.652 206.729 151.155 190.225C167.658 173.722 176.93 151.339 176.93 128V88C176.945 65.2368 168.108 43.3598 152.287 26.9932ZM88.9297 16C108.019 16.0215 126.32 23.6141 139.818 37.1121C153.316 50.61 160.908 68.911 160.93 88V100H16.9297V88C16.9512 68.911 24.5438 50.61 38.0417 37.1121C51.5397 23.6141 69.8407 16.0215 88.9297 16ZM88.9297 200C69.8407 199.978 51.5397 192.386 38.0417 178.888C24.5438 165.39 16.9512 147.089 16.9297 128V116H160.93V128C160.908 147.089 153.316 165.39 139.818 178.888C126.32 192.386 108.019 199.978 88.9297 200ZM104.93 72C104.93 69.6266 105.633 67.3066 106.952 65.3332C108.271 63.3598 110.145 61.8217 112.337 60.9134C114.53 60.0052 116.943 59.7675 119.271 60.2306C121.599 60.6936 123.737 61.8365 125.415 63.5147C127.093 65.1929 128.236 67.3311 128.699 69.6589C129.162 71.9867 128.925 74.3995 128.016 76.5922C127.108 78.7849 125.57 80.6591 123.597 81.9776C121.623 83.2962 119.303 84 116.93 84C113.747 84 110.695 82.7357 108.444 80.4853C106.194 78.2348 104.93 75.1826 104.93 72ZM48.9297 72C48.9297 69.6266 49.6335 67.3066 50.9521 65.3332C52.2706 63.3598 54.1448 61.8217 56.3375 60.9134C58.5302 60.0052 60.943 59.7675 63.2708 60.2306C65.5985 60.6936 67.7367 61.8365 69.415 63.5147C71.0932 65.1929 72.2361 67.3311 72.6991 69.6589C73.1621 71.9867 72.9245 74.3995 72.0162 76.5922C71.108 78.7849 69.5699 80.6591 67.5965 81.9776C65.6231 83.2962 63.3031 84 60.9297 84C57.7471 84 54.6948 82.7357 52.4444 80.4853C50.194 78.2348 48.9297 75.1826 48.9297 72Z" fill="black"/>
</svg>
